# xmcd CD database file
#
# Track frame offsets:
#	150
#	16602
#	50880
#	68612
#	87290
#	102587
#	122050
#	152272
#	182737
#	206467
#	238362
#	281737
#
# Disc length: 4201 seconds
#
# Revision: 2
# Processed by: cddbd v1.5.1PL2 Copyright (c) Steve Scherf et al.
# Submitted via: CDex 1.51
#
DISCID=a210670c
DTITLE=向井滋春 - Better Days of SHIGEHARU MUKAI
DYEAR=1992
DGENRE=Jazz
TTITLE0=CHAMPAGNE AND CAVIAR
TTITLE1=CALYPSOMBA
TTITLE2=WIND BELL
TTITLE3=NOS DOIS
TTITLE4=MIRACLE OF FISHES
TTITLE5=ONCE I LOVED
TTITLE6=IN THE MIST
TTITLE7=LONELY RIDER
TTITLE8=PERSONAL CALL
TTITLE9=MIRAGE
TTITLE10=NIMUORO NEINA
TTITLE11=HUDSON BREEZE
EXTD=YEAR: 1992
EXTT0=
EXTT1=
EXTT2=
EXTT3=
EXTT4=
EXTT5=
EXTT6=
EXTT7=
EXTT8=
EXTT9=
EXTT10=
EXTT11=
PLAYORDER=
